<svg width="34" height="22" viewBox="0 0 34 22" fill="none" xmlns="http://www.w3.org/2000/svg">
<path d="M31.3143 2.94747C31.3143 1.34841 30.0162 0.0522461 28.4149 0.0522461H2.89936C1.29805 0.052318 0 1.34856 0 2.94747V5.48276H31.3143V2.94747Z" fill="#0047CC"/>
<path d="M29.6016 13.8649L27.6928 13.8644L27.6922 11.9584C27.6922 11.8591 27.6116 11.7786 27.5122 11.7786H26.0715C26.0237 11.7786 25.9778 11.7975 25.9441 11.8312C25.9103 11.865 25.8914 11.9106 25.8914 11.9584L25.892 13.8638L23.9838 13.8632C23.8843 13.8632 23.8037 13.9437 23.8037 14.043V15.4818C23.8037 15.5294 23.8226 15.5751 23.8564 15.6089C23.8902 15.6426 23.936 15.6616 23.9838 15.6616L25.8925 15.6622L25.8931 17.5682C25.8931 17.6158 25.9122 17.6616 25.9459 17.6953C25.9796 17.7291 26.0254 17.748 26.0732 17.748H27.5139C27.6134 17.748 27.694 17.6675 27.694 17.5682L27.6934 15.6627L29.6016 15.6633C29.6493 15.6633 29.6951 15.6443 29.7289 15.6108C29.7627 15.577 29.7817 15.5313 29.7817 15.4836V14.045C29.7817 13.9453 29.7011 13.8649 29.6016 13.8649Z" fill="#0EAFE6"/>
<rect y="5.48291" width="31.28" height="4.07407" fill="#0EAFE6"/>
<path fill-rule="evenodd" clip-rule="evenodd" d="M26.7982 7.58862C25.4858 7.58862 24.2545 7.94194 23.1944 8.55787H0V17.3412C0 18.9401 1.29805 20.2364 2.89936 20.2364H22.1488C23.4032 21.3013 25.0269 21.9447 26.7983 21.9447C30.7621 21.9447 33.9868 18.7247 33.9868 14.7667C33.9867 10.8088 30.7621 7.58862 26.7982 7.58862ZM10.7073 16.2683C10.7073 16.4735 10.5406 16.6397 10.3353 16.6397H4.59972C4.39428 16.6397 4.2276 16.4734 4.2276 16.2683V15.1383C4.2276 14.933 4.39428 14.7668 4.59972 14.7668H10.3353C10.5407 14.7668 10.7073 14.9331 10.7073 15.1383V16.2683ZM22.2421 14.7668C22.2421 17.2795 24.2817 19.3164 26.7982 19.3164C29.3146 19.3164 31.3543 17.2794 31.3543 14.7668C31.3543 12.2542 29.3146 10.2173 26.7982 10.2173C24.2817 10.2173 22.2421 12.2541 22.2421 14.7668Z" fill="#0047CC"/>
</svg>
