<svg width="16" height="23" viewBox="0 0 16 23" fill="none" xmlns="http://www.w3.org/2000/svg">
<path d="M7.32057 22.1868L0.868952 15.6441C0.475323 15.2449 0.475323 14.5975 0.868952 14.1983C1.26266 13.799 1.90089 13.799 2.2946 14.1983L7.02532 18.9959L7.02532 1.5223C7.02532 0.957747 7.47669 0.5 8.03339 0.5C8.59 0.5 9.04145 0.957747 9.04145 1.5223L9.04145 18.9959L13.7722 14.1985C14.1659 13.7992 14.8041 13.7992 15.1978 14.1985C15.3945 14.398 15.4931 14.6597 15.4931 14.9214C15.4931 15.183 15.3945 15.4446 15.1978 15.6443L8.74621 22.1868C8.3525 22.5861 7.71427 22.5861 7.32057 22.1868Z" fill="#F24750"/>
</svg>
