<svg width="16" height="23" viewBox="0 0 16 23" fill="none" xmlns="http://www.w3.org/2000/svg">
<path d="M7.32057 0.813152L0.868952 7.3559C0.475323 7.75509 0.475323 8.4025 0.868952 8.80169C1.26266 9.20096 1.90089 9.20096 2.2946 8.80169L7.02532 4.00413L7.02532 21.4777C7.02532 22.0423 7.47669 22.5 8.03339 22.5C8.59 22.5 9.04145 22.0423 9.04145 21.4777L9.04145 4.00413L13.7722 8.80152C14.1659 9.2008 14.8041 9.2008 15.1978 8.80152C15.3945 8.60197 15.4931 8.34026 15.4931 8.07863C15.4931 7.817 15.3945 7.55538 15.1978 7.35574L8.74621 0.813152C8.3525 0.413881 7.71427 0.413881 7.32057 0.813152Z" fill="#1BC773"/>
</svg>
