<svg width="40" height="40" viewBox="0 0 40 40" fill="none" xmlns="http://www.w3.org/2000/svg">
<rect width="40" height="40" rx="8" fill="#DFE7F5"/>
<path fill-rule="evenodd" clip-rule="evenodd" d="M28.7691 19.0995H20.6714L20.6709 11C22.7871 11.126 24.7717 12.014 26.2638 13.5062C27.7555 14.9969 28.6421 16.9811 28.7691 19.0995Z" fill="#22B4E7"/>
<path fill-rule="evenodd" clip-rule="evenodd" d="M13.0949 25.8136C11.744 24.255 11 22.2745 11 20.2253C11 17.9421 11.8894 15.7969 13.5043 14.1838C14.9531 12.7336 16.88 11.8562 18.9343 11.7095V19.9899L13.0949 25.8136ZM19.5495 28.7693C21.8309 28.7693 23.9743 27.8813 25.5869 26.2696C27.0389 24.8167 27.9154 22.8902 28.0612 20.8359L19.8191 20.8105L13.9557 26.6753C15.5171 28.0267 17.4975 28.7702 19.5458 28.7693H19.5495Z" fill="#0047CC"/>
</svg>
