<svg width="27" height="22" viewBox="0 0 27 22" fill="none" xmlns="http://www.w3.org/2000/svg">
<path fill-rule="evenodd" clip-rule="evenodd" d="M0.5434 22C0.4004 22 0.26015 21.9417 0.16005 21.8405C0.0583 21.7398 0 21.5991 0 21.4566V0.5445H0.0011C0.0011 0.2453 0.2442 0 0.5434 0C0.84425 0 1.0868 0.2453 1.0868 0.5445V20.9126H25.459C25.7593 20.9126 26.0023 21.1558 26.0023 21.4566C26.0023 21.7558 25.7593 22 25.459 22H0.5434" fill="#0047CC"/>
<path fill-rule="evenodd" clip-rule="evenodd" d="M6.91411 18.4305C6.91411 19.0091 6.44111 19.4827 5.86196 19.4827H3.85446C3.27531 19.4827 2.80176 19.0091 2.80176 18.4305V16.2074C2.80176 15.6283 3.27531 15.1553 3.85446 15.1553H5.86196C6.44111 15.1553 6.91411 15.6283 6.91411 16.2074V18.4305" fill="#0047CC"/>
<path fill-rule="evenodd" clip-rule="evenodd" d="M12.1417 18.4306C12.1417 19.0092 11.6682 19.4828 11.089 19.4828H9.08151C8.50236 19.4828 8.02881 19.0092 8.02881 18.4306V11.4467C8.02881 10.8676 8.50236 10.394 9.08151 10.394H11.089C11.6682 10.394 12.1417 10.8676 12.1417 11.4467V18.4306" fill="#0047CC"/>
<path fill-rule="evenodd" clip-rule="evenodd" d="M22.8647 18.3733C22.8647 18.9838 22.3653 19.4826 21.7553 19.4826H19.8628C19.2523 19.4826 18.7534 18.9838 18.7534 18.3733V9.28177C18.7534 8.67128 19.2523 8.17188 19.8628 8.17188H21.7553C22.3653 8.17188 22.8647 8.67128 22.8647 9.28177V18.3733" fill="#0047CC"/>
<path fill-rule="evenodd" clip-rule="evenodd" d="M17.3678 18.4305C17.3678 19.0091 16.8942 19.4827 16.3151 19.4827H14.3076C13.7284 19.4827 13.2549 19.0091 13.2549 18.4305V13.6103C13.2549 13.0312 13.7284 12.5576 14.3076 12.5576H16.3151C16.8942 12.5576 17.3678 13.0312 17.3678 13.6103V18.4305" fill="#0047CC"/>
<path fill-rule="evenodd" clip-rule="evenodd" d="M22.0225 1.65723L18.0212 2.09448L19.3401 3.41338L14.9995 8.71758L10.4961 4.55463C10.1876 4.27028 9.71127 4.26643 9.40107 4.54748L2.78127 10.5243C2.44797 10.8246 2.42212 11.3383 2.72242 11.6716C2.88302 11.8487 3.10467 11.9389 3.32577 11.9389C3.51992 11.9389 3.71462 11.8702 3.87027 11.7299H3.86917L9.93842 6.25028L14.5309 10.4952C14.6954 10.647 14.9165 10.7245 15.1387 10.7086C15.3609 10.6943 15.5699 10.5854 15.7101 10.4132L20.4935 4.56728L21.5874 5.66123L22.0225 1.65723" fill="#0047CC"/>
</svg>
