<svg width="19" height="18" viewBox="0 0 19 18" fill="none" xmlns="http://www.w3.org/2000/svg">
<path d="M4.48918 10.8777L3.86262 13.2167L1.57258 13.2652C0.888195 11.9958 0.5 10.5435 0.5 9.0001C0.5 7.50768 0.862953 6.10031 1.50631 4.86108H1.5068L3.54559 5.23487L4.4387 7.26141C4.25177 7.80637 4.14989 8.39137 4.14989 9.0001C4.14996 9.66076 4.26963 10.2937 4.48918 10.8777Z" fill="#FBBB00"/>
<path d="M18.3426 7.3186C18.446 7.86303 18.4999 8.42529 18.4999 8.99992C18.4999 9.64426 18.4321 10.2728 18.3031 10.8791C17.865 12.9421 16.7202 14.7436 15.1343 16.0184L15.1338 16.0179L12.5659 15.8869L12.2024 13.6181C13.2547 13.001 14.0771 12.0352 14.5103 10.8791H9.69775V7.3186H14.5805H18.3426V7.3186Z" fill="#518EF8"/>
<path d="M15.1341 16.0181L15.1346 16.0185C13.5922 17.2583 11.633 18 9.50017 18C6.07275 18 3.09288 16.0843 1.57275 13.2651L4.48935 10.8777C5.24939 12.9061 7.20616 14.3501 9.50017 14.3501C10.4862 14.3501 11.41 14.0835 12.2026 13.6182L15.1341 16.0181Z" fill="#28B446"/>
<path d="M15.2447 2.07197L12.3291 4.45894C11.5087 3.94615 10.539 3.64992 9.50004 3.64992C7.15409 3.64992 5.16073 5.16013 4.43877 7.26131L1.50684 4.86098H1.50635C3.00421 1.97307 6.02168 0 9.50004 0C11.6838 0 13.686 0.777867 15.2447 2.07197Z" fill="#F14336"/>
</svg>
