<svg width="25" height="22" viewBox="0 0 25 22" fill="none" xmlns="http://www.w3.org/2000/svg">
<path fill-rule="evenodd" clip-rule="evenodd" d="M23.9636 20.3701H0.999457C0.450543 20.3701 0 20.7282 0 21.1665V21.205C0 21.6434 0.450543 22.0003 0.999457 22.0003H23.9636C24.5152 22.0003 24.9625 21.6434 24.9625 21.205V21.1665C24.9625 20.7282 24.5152 20.3701 23.9636 20.3701" fill="#0047CC"/>
<path fill-rule="evenodd" clip-rule="evenodd" d="M13.2805 7.38477H11.6854C11.1697 7.38477 10.7501 7.80937 10.7501 8.33297V15.3108C10.7501 15.8333 11.1697 16.2579 11.6854 16.2579H13.2805C13.7985 16.2579 14.2175 15.8333 14.2175 15.3108V8.33297C14.2175 7.80937 13.7985 7.38477 13.2805 7.38477ZM6.26205 7.38477H4.66531C4.15281 7.38477 3.72998 7.81157 3.72998 8.33297V15.3108C3.72998 15.8333 4.15281 16.259 4.66531 16.259H6.26205C6.77835 16.259 7.19846 15.8333 7.19846 15.3108V8.33297C7.19846 7.81157 6.77835 7.38477 6.26205 7.38477ZM20.2979 7.38477H18.7044C18.1887 7.38477 17.7697 7.80937 17.7697 8.33297V15.3108C17.7697 15.8333 18.1887 16.2579 18.7044 16.2579H20.2979C20.8159 16.2579 21.2349 15.8333 21.2349 15.3108V8.33297C21.2349 7.80937 20.8159 7.38477 20.2979 7.38477V7.38477Z" fill="#0047CC"/>
<path fill-rule="evenodd" clip-rule="evenodd" d="M24.4263 4.66359L12.697 0.0309375C12.5589 -0.0103125 12.4111 -0.0103125 12.2752 0.0309375L0.538261 4.66359C0.209457 4.75819 0.00293488 5.06289 0.0561958 5.37584C0.109457 5.69209 0.405652 5.92474 0.748044 5.92474H24.2138C24.5627 5.92474 24.8595 5.69209 24.91 5.37584C24.9616 5.06289 24.7578 4.75819 24.4263 4.66359" fill="#0047CC"/>
<path fill-rule="evenodd" clip-rule="evenodd" d="M23.7402 18.3652V18.4031C23.7402 18.842 23.2929 19.1995 22.7412 19.1995H2.22222C1.67277 19.1995 1.22168 18.842 1.22168 18.4031V18.3652C1.22168 17.9268 1.67277 17.5693 2.22222 17.5693H22.7412C23.2929 17.5693 23.7402 17.9268 23.7402 18.3652" fill="#0047CC"/>
</svg>
