<svg width="40" height="40" viewBox="0 0 40 40" fill="none" xmlns="http://www.w3.org/2000/svg">
<rect width="40" height="40" rx="8" fill="#DFE7F5"/>
<path opacity="0.9" d="M19.8945 29.0002C21.3175 29.0002 22.5079 27.9858 22.7813 26.6431H17.0078C17.2813 27.9858 18.4717 29.0002 19.8945 29.0002Z" fill="#0EAFE6"/>
<path opacity="0.9" d="M19.8947 11.7144C16.8572 11.7144 14.3947 14.1767 14.3947 17.2143V19.4049C14.3947 20.9598 13.7135 22.4275 12.5184 23.4379C12.12 23.7782 11.9432 24.3203 12.0862 24.8491C12.2528 25.4643 12.861 25.8572 13.499 25.8572H26.2865C26.9559 25.8572 27.5869 25.4234 27.7227 24.7674C27.828 24.2598 27.6473 23.753 27.2537 23.4222C26.1113 22.4645 25.4505 21.0572 25.4041 19.5707C25.4041 19.5707 25.4041 11.7144 19.8947 11.7144Z" fill="#0047CC"/>
</svg>
