<svg width="18" height="18" viewBox="0 0 18 18" fill="none" xmlns="http://www.w3.org/2000/svg">
<path d="M8.98261 17C9.27923 17 9.54095 16.878 9.7416 16.6863C9.93353 16.4946 10.0557 16.2244 10.0557 15.9281V10.0632H15.9269C16.2236 10.0632 16.4853 9.94123 16.6859 9.74951C16.8779 9.55779 17 9.28764 17 8.99134C17 8.39876 16.5202 7.91946 15.9357 7.92817H10.0644V2.06329C10.0644 1.4707 9.58457 0.991402 9.00006 1.00012C8.40682 1.00012 7.927 1.47942 7.93573 2.06329V7.92817H2.06445C1.47122 7.92817 0.991393 8.40747 1.00012 8.99134C1.00012 9.58393 1.47994 10.0632 2.06445 10.0545H7.93573V15.9194C7.90955 16.5207 8.38938 17 8.98261 17Z" fill="#A6E8FF" stroke="#93EAFF"/>
</svg>
