<svg width="19" height="18" viewBox="0 0 19 18" fill="none" xmlns="http://www.w3.org/2000/svg">
<path fill-rule="evenodd" clip-rule="evenodd" d="M16.9866 6.57639C17.0325 6.71651 17.399 7.01219 17.6192 7.18945L17.6205 7.19051C18.1596 7.62614 18.8308 8.16856 18.8308 8.99691C18.8308 9.83293 18.1499 10.3918 17.6021 10.8408L17.5909 10.85C17.3742 11.0281 17.0231 11.3168 16.9772 11.4484C16.9345 11.5875 17.0522 12.0495 17.1231 12.3276L17.1235 12.3293C17.3048 13.0407 17.5103 13.8481 17.0317 14.5006C16.5572 15.1488 15.7316 15.2048 15.0027 15.2543L14.9983 15.2545C14.7057 15.2739 14.2163 15.3064 14.0925 15.397C13.9686 15.4876 13.7889 15.9271 13.6779 16.1986L13.6723 16.2121L13.6707 16.216C13.3964 16.8885 13.0864 17.6484 12.3269 17.9057C11.5563 18.1682 10.8299 17.7086 10.2471 17.3399L10.2422 17.3368C9.97916 17.1696 9.58077 16.9172 9.415 16.9172C9.24711 16.9172 8.84894 17.1675 8.58052 17.3362L8.57225 17.3414L8.56262 17.3474C8.078 17.6509 7.54123 17.987 6.9599 17.987C6.81205 17.987 6.6603 17.9653 6.507 17.915C5.74317 17.6697 5.43108 16.9024 5.15569 16.2253L5.15534 16.2244L5.15502 16.2236C5.04373 15.9503 4.85875 15.496 4.73591 15.407C4.61679 15.3207 4.15947 15.289 3.86853 15.2688L3.84101 15.2669L3.83933 15.2668C3.14471 15.2203 2.28196 15.1626 1.79132 14.5176C1.28848 13.8543 1.50907 13.0102 1.68638 12.3318L1.68705 12.3293C1.7602 12.0529 1.88157 11.59 1.8349 11.4476C1.78742 11.3036 1.43648 11.0134 1.20381 10.8214C0.667685 10.3786 0 9.82671 0 8.99615C0 8.1609 0.67965 7.60308 1.22652 7.15424L1.22801 7.15301L1.23234 7.14946C1.44915 6.97183 1.8073 6.67838 1.85366 6.54537C1.89646 6.40779 1.78016 5.95286 1.70815 5.67119L1.70426 5.65598C1.52217 4.95079 1.31599 4.15195 1.77587 3.50406C2.24404 2.84498 3.07671 2.78889 3.81174 2.73937L3.81309 2.73928C4.10725 2.71993 4.59983 2.6874 4.72278 2.59685C4.84788 2.50543 5.02973 2.05947 5.14047 1.78792L5.14298 1.78177L5.14592 1.77458C5.4199 1.10444 5.73008 0.345751 6.4892 0.0888899C7.26347 -0.172769 7.99806 0.297866 8.58557 0.677951L8.58976 0.680661C8.85589 0.852505 9.25329 1.10911 9.41508 1.10911C9.58251 1.10911 9.97966 0.860203 10.2489 0.691496L10.2594 0.684902L10.2599 0.684571C10.8706 0.299956 11.5646 -0.137064 12.3239 0.10978C13.0872 0.35439 13.4 1.12228 13.6747 1.79959C13.786 2.07284 13.972 2.52877 14.0957 2.61778C14.215 2.70397 14.6796 2.73627 14.9701 2.75648L14.9906 2.7579L14.9924 2.75802C15.6893 2.80446 16.5559 2.86221 17.038 3.51573C17.5224 4.17398 17.3067 5.01003 17.1333 5.68244L17.1329 5.68389C17.0605 5.96256 16.9399 6.43085 16.9866 6.57639Z" fill="#FECE46"/>
<path d="M12.8946 6.08002C12.5631 5.80446 12.0736 5.84935 11.799 6.17679L8.32913 10.3034L6.85293 8.83574C6.54866 8.53307 6.05685 8.53307 5.75262 8.83574C5.44835 9.13841 5.44835 9.62763 5.75262 9.93027L7.83033 11.997C7.97583 12.1434 8.17429 12.2238 8.38051 12.2238C8.3914 12.2238 8.40309 12.2238 8.41398 12.2223C8.6334 12.213 8.83653 12.1124 8.97659 11.946L12.9919 7.1699C13.2673 6.84173 13.2246 6.35405 12.8946 6.08002Z" fill="white"/>
</svg>
