<svg width="22" height="22" viewBox="0 0 22 22" fill="none" xmlns="http://www.w3.org/2000/svg">
<path fill-rule="evenodd" clip-rule="evenodd" d="M20.4805 11.3298H19.7519C19.3626 8.97527 17.864 6.95485 15.7576 5.70955C14.9651 6.78243 13.6963 7.48183 12.2632 7.48183C10.3482 7.48183 8.72172 6.23653 8.14358 4.51388L5.95893 2.85825C5.68879 2.6536 5.44014 2.77025 5.40381 3.11713L5.06767 6.32913C3.92265 7.21118 3.03037 8.34904 2.486 9.64499H1.04014C0.46814 9.64499 0 10.1131 0 10.6856V13.8465C0 14.419 0.46814 14.8871 1.04014 14.8871H2.26958C2.87535 16.7239 4.1713 18.2884 5.88781 19.3301V21.3439C5.88781 21.6007 6.09809 21.8105 6.35442 21.8105H8.64191C8.89823 21.8105 9.10851 21.6007 9.10851 21.3439V20.5437C9.68 20.647 10.2714 20.7033 10.8762 20.7033C11.4814 20.7033 12.0724 20.647 12.6439 20.5437V21.3439C12.6439 21.6007 12.8547 21.8105 13.1105 21.8105H15.398C15.6543 21.8105 15.8646 21.6007 15.8646 21.3439V19.3301C18.0262 18.0183 19.5253 15.8787 19.8113 13.4101H20.4805C21.0545 13.4101 21.5201 12.9435 21.5201 12.3689C21.5201 11.7949 21.0545 11.3298 20.4805 11.3298ZM6.05614 10.414C5.42121 10.414 4.8927 9.97448 4.74791 9.38457C4.91981 9.62606 5.20121 9.78518 5.52098 9.78518C6.04642 9.78518 6.47312 9.35848 6.47312 8.83406C6.47312 8.30811 6.04642 7.88141 5.52098 7.88141C5.47595 7.88141 5.43144 7.88857 5.38744 7.89523C5.58544 7.78113 5.81158 7.71104 6.05614 7.71104C6.8026 7.71104 7.40735 8.31629 7.40735 9.06276C7.40735 9.80923 6.8026 10.414 6.05614 10.414V10.414Z" fill="#0047CC"/>
<path fill-rule="evenodd" clip-rule="evenodd" d="M12.2632 0C10.5344 0 9.12744 1.40647 9.12744 3.13474C9.12744 4.86353 10.5344 6.27 12.2632 6.27C13.9915 6.27 15.3974 4.86353 15.3974 3.13474C15.3974 1.40647 13.9915 0 12.2632 0ZM12.5175 4.7034V5.23702H11.8739V4.74995C11.4779 4.73 11.0875 4.62972 10.8736 4.52637L11.0542 3.80344C11.308 3.91805 11.659 4.03367 12.0493 4.03367C12.3374 4.03367 12.541 3.96051 12.541 3.79219C12.541 3.63102 12.3707 3.53074 11.9532 3.41051C11.3367 3.22735 10.9018 2.96028 10.9018 2.43126C10.9018 1.95595 11.2573 1.5794 11.902 1.45916V0.972093H12.541V1.41772C12.9309 1.42795 13.1959 1.50112 13.399 1.58349L13.2184 2.28033C13.066 2.22302 12.7892 2.10279 12.3655 2.10279C12.032 2.10279 11.9301 2.21177 11.9301 2.32791C11.9301 2.45837 12.1225 2.55763 12.5978 2.70958C13.3085 2.92958 13.5689 3.22735 13.5689 3.70367C13.5689 4.19126 13.1959 4.58777 12.5175 4.7034V4.7034Z" fill="#0EAFE6"/>
</svg>
